<svg xmlns="http://www.w3.org/2000/svg" width="80" height="98" viewBox="0 0 80 98" fill="none">
  <g filter="url(#filter0_d_6_3)">
    <path d="M70.2088 31.364C70.9288 31.364 71.5126 30.7804 71.5126 30.0602V17.4662C71.5126 14.8913 69.5053 12.7716 66.9427 12.6407C51.4814 11.8534 43.1714 5.53033 39.5943 1.83139C38.6838 0.889752 37.4588 0.371216 36.145 0.371216C34.8312 0.371216 33.6062 0.889752 32.696 1.83122C29.1186 5.53016 20.8086 11.8532 5.34695 12.6407C2.78469 12.7716 0.777466 14.8911 0.777466 17.4662V53.8144C0.777466 64.2826 6.40975 74.0376 15.4767 79.2727L30.2261 87.7867C32.0518 88.8414 34.0982 89.3686 36.1452 89.3686C38.1917 89.3686 40.2387 88.8414 42.0639 87.7869L56.8136 79.2729C65.8803 74.0378 71.5127 64.2828 71.5127 53.8145V36.1447C71.5127 35.4245 70.929 34.8409 70.209 34.8409C69.489 34.8409 68.9053 35.4245 68.9053 36.1447V53.8145C68.9053 63.3542 63.7724 72.244 55.5099 77.0148L40.76 85.529C37.9136 87.1733 34.3766 87.1731 31.5298 85.5288L16.7803 77.0148C8.51779 72.244 3.38492 63.3542 3.38492 53.8145V17.4662C3.38492 16.2807 4.30518 15.3048 5.47975 15.2448C21.8346 14.412 30.7258 7.61908 34.5705 3.64392C34.985 3.21508 35.5443 2.97885 36.145 2.97885C36.7458 2.97885 37.305 3.21508 37.7197 3.6441C41.564 7.61908 50.4553 14.412 66.8099 15.2448C67.9848 15.305 68.9051 16.2807 68.9051 17.4662V30.0602C68.9051 30.7804 69.4888 31.364 70.2088 31.364Z" fill="#F05833"/>
    <path d="M9.10571 34.8406C8.3857 34.8406 7.80198 35.4241 7.80198 36.1443V53.8142C7.80198 61.7805 12.0881 69.2049 18.988 73.1902L33.738 81.7046C34.4702 82.1268 35.3025 82.35 36.145 82.35C36.9876 82.35 37.8199 82.1268 38.5526 81.7042L53.3025 73.19C60.2021 69.2049 64.4883 61.7805 64.4883 53.8142V22.2709C64.4883 20.7318 63.3398 19.4275 61.8175 19.2372C50.1241 17.7664 42.4318 13.324 38.0361 9.85504C36.9228 8.97911 35.3675 8.97911 34.2527 9.85626C29.8586 13.324 22.1661 17.7664 10.4739 19.237C8.95082 19.4275 7.80215 20.7318 7.80215 22.2709V30.0602C7.80215 30.7804 8.38588 31.364 9.10588 31.364C9.82589 31.364 10.4096 30.7804 10.4096 30.0602V22.2709C10.4096 22.0439 10.5761 21.852 10.7983 21.8243C23.0867 20.2786 31.214 15.5761 35.8666 11.9045C36.0303 11.7753 36.2594 11.7752 36.4223 11.9033C41.0763 15.5761 49.2035 20.2788 61.4932 21.8245C61.7141 21.852 61.8808 22.044 61.8808 22.2709V53.8142C61.8808 60.8522 58.0941 67.4115 51.9987 70.9321L37.2497 79.446C36.5765 79.8343 35.7136 79.834 35.0414 79.4463L20.292 70.9323C14.1965 67.4115 10.4096 60.8524 10.4096 53.8142V36.1443C10.4094 35.4241 9.82589 34.8406 9.10571 34.8406Z" fill="#F05833"/>
    <path d="M20.3412 41.8107C21.4 41.8107 22.3952 42.2229 23.1437 42.9714L29.9561 49.782C30.4655 50.2914 31.2906 50.291 31.7998 49.782L39.2623 42.3195C39.7715 41.8102 39.7715 40.9848 39.2623 40.4757C38.7532 39.9667 37.9277 39.9667 37.4187 40.4757L30.878 47.0166L24.9875 41.1277C23.7467 39.8867 22.0967 39.2034 20.3414 39.2034C18.5861 39.2034 16.9361 39.8869 15.6953 41.1275C14.4536 42.3694 13.7697 44.0199 13.7697 45.7752C13.7697 47.5311 14.4538 49.1813 15.6953 50.4217L26.2303 60.9567C27.4704 62.1989 29.1209 62.883 30.8781 62.883C32.6342 62.883 34.2842 62.1988 35.5234 60.9576L56.5946 39.886C57.8366 38.6451 58.5207 36.9949 58.5207 35.2394C58.5207 33.4839 57.8368 31.8334 56.5951 30.5917C55.3543 29.3509 53.7043 28.6677 51.949 28.6677C50.1936 28.6677 48.5437 29.3511 47.3028 30.5917L41.7212 36.1732C41.212 36.6825 41.212 37.5079 41.7212 38.017C42.2303 38.526 43.0558 38.526 43.5648 38.017L49.1465 32.4353C49.8948 31.687 50.89 31.275 51.949 31.275C53.0078 31.275 54.003 31.687 54.7515 32.4355C55.5007 33.1847 55.9134 34.1804 55.9134 35.2394C55.9134 36.2982 55.5009 37.2932 54.7515 38.0419L33.6789 59.1147C32.9314 59.8633 31.9368 60.2757 30.8781 60.2757C29.8183 60.2757 28.8229 59.8633 28.0748 59.1138L17.5386 48.5776C16.7897 47.8292 16.3772 46.8341 16.3772 45.7752C16.3772 44.7163 16.7899 43.7206 17.5391 42.9714C18.2872 42.2229 19.2824 41.8107 20.3412 41.8107Z" fill="#F05833"/>
  </g>
  <defs>
    <filter id="filter0_d_6_3" x="0.777466" y="0.371216" width="78.7353" height="96.9974" filterUnits="userSpaceOnUse" color-interpolation-filters="sRGB">
      <feFlood flood-opacity="0" result="BackgroundImageFix"/>
      <feColorMatrix in="SourceAlpha" type="matrix" values="0 0 0 0 0 0 0 0 0 0 0 0 0 0 0 0 0 0 127 0" result="hardAlpha"/>
      <feOffset dx="4" dy="4"/>
      <feGaussianBlur stdDeviation="2"/>
      <feColorMatrix type="matrix" values="0 0 0 0 0 0 0 0 0 0 0 0 0 0 0 0 0 0 0.25 0"/>
      <feBlend mode="normal" in2="BackgroundImageFix" result="effect1_dropShadow_6_3"/>
      <feBlend mode="normal" in="SourceGraphic" in2="effect1_dropShadow_6_3" result="shape"/>
    </filter>
  </defs>
</svg>
