<svg xmlns="http://www.w3.org/2000/svg" width="99" height="76" viewBox="0 0 99 76" fill="none">
  <g filter="url(#filter0_d_6_87)">
    <path d="M87.7705 53.7934H87.6724V45.8378C87.6724 25.983 73.8228 8.77425 54.5876 4.50901C54.4854 3.48245 54.0466 2.52747 53.3175 1.77163C52.4411 0.863196 51.264 0.362793 50.0026 0.362793H40.808C39.5466 0.362793 38.3694 0.863196 37.493 1.77163C36.7641 2.52747 36.3251 3.48245 36.2229 4.50901C16.9878 8.77425 3.13811 25.983 3.13811 45.8378V53.7934H3.04002C1.36358 53.7934 0 55.1593 0 56.8381V58.8415C0 60.1672 0.837337 61.332 2.0835 61.74C13.8997 65.6095 29.2852 67.7404 45.4053 67.7404C61.5254 67.7404 76.9108 65.6095 88.727 61.74C89.9732 61.332 90.8105 60.1672 90.8105 58.8415V56.8381C90.8105 55.1593 89.4468 53.7934 87.7705 53.7934ZM39.609 3.81889C39.926 3.49044 40.3518 3.30925 40.808 3.30925H50.0024C50.4586 3.30925 50.8844 3.49009 51.2014 3.81889C51.5183 4.14752 51.6843 4.58007 51.6685 5.03659L50.316 44.3238C50.2847 45.228 49.5529 45.9362 48.6498 45.9362H42.1609C41.2578 45.9362 40.526 45.228 40.4948 44.324L39.1422 5.03677C39.1262 4.57989 39.292 4.14752 39.609 3.81889ZM87.8686 58.8417C87.8686 58.8813 87.8514 58.927 87.8129 58.9396C76.2839 62.7147 61.2231 64.7939 45.4053 64.7939C29.5874 64.7939 14.5267 62.7147 2.99781 58.9392C2.95932 58.9266 2.94212 58.8811 2.94212 58.8415V56.8381C2.94212 56.784 2.98611 56.7399 3.0402 56.7399H59.527C60.3393 56.7399 60.9981 56.0803 60.9981 55.2666C60.9981 54.453 60.3395 53.7933 59.527 53.7933H6.08023V45.8378C6.08023 31.0309 14.3591 17.8067 26.8595 11.097L30.0514 33.4755C30.1564 34.2104 30.7855 34.7407 31.5059 34.7407C31.5751 34.7407 31.6452 34.7357 31.7158 34.7257C32.5201 34.6106 33.079 33.8644 32.964 33.059L29.6385 9.74272C31.7564 8.81404 33.9773 8.06637 36.2838 7.51853L37.5546 44.4258C37.6406 46.9249 39.664 48.8828 42.1611 48.8828H48.65C51.1469 48.8828 53.1703 46.9249 53.2565 44.4258L54.5273 7.51871C56.8336 8.06672 59.0547 8.81439 61.1726 9.7429L57.847 33.0591C57.7323 33.8647 58.2911 34.6108 59.0953 34.7259C59.1659 34.7359 59.236 34.7408 59.3051 34.7408C60.0254 34.7408 60.6547 34.2104 60.7597 33.4757L63.9515 11.0972C76.452 17.8067 84.7308 31.0307 84.7308 45.8378V53.7934H75.2179C74.4056 53.7934 73.7468 54.453 73.7468 55.2668C73.7468 56.0803 74.4054 56.7401 75.2179 56.7401H87.7709C87.825 56.7401 87.8689 56.7841 87.8689 56.8383V58.8417H87.8686Z" fill="#F05833"/>
    <path d="M68.9417 53.7935H65.8034C64.9911 53.7935 64.3323 54.453 64.3323 55.2668C64.3323 56.0804 64.9909 56.7401 65.8034 56.7401H68.9417C69.754 56.7401 70.4127 56.0805 70.4127 55.2668C70.4127 54.453 69.7542 53.7935 68.9417 53.7935Z" fill="#F05833"/>
    <path d="M34.3091 42.4864L33.8606 39.3426C33.7457 38.537 33.0011 37.9773 32.1964 38.0924C31.392 38.2075 30.8332 38.9538 30.9481 39.7592L31.3965 42.903C31.5015 43.6379 32.1306 44.1681 32.851 44.1681C32.9202 44.1681 32.9903 44.1631 33.0608 44.1532C33.8652 44.0381 34.4241 43.2918 34.3091 42.4864Z" fill="#F05833"/>
    <path d="M58.6143 38.0924C57.8099 37.9771 57.065 38.5372 56.9501 39.3426L56.5017 42.4865C56.3869 43.292 56.9458 44.0381 57.75 44.1532C57.8204 44.1632 57.8906 44.1681 57.9598 44.1681C58.6801 44.1681 59.3094 43.6377 59.4144 42.903L59.8628 39.7592C59.9773 38.9538 59.4185 38.2075 58.6143 38.0924Z" fill="#F05833"/>
  </g>
  <defs>
    <filter id="filter0_d_6_87" x="0" y="0.362793" width="98.8105" height="75.3777" filterUnits="userSpaceOnUse" color-interpolation-filters="sRGB">
      <feFlood flood-opacity="0" result="BackgroundImageFix"/>
      <feColorMatrix in="SourceAlpha" type="matrix" values="0 0 0 0 0 0 0 0 0 0 0 0 0 0 0 0 0 0 127 0" result="hardAlpha"/>
      <feOffset dx="4" dy="4"/>
      <feGaussianBlur stdDeviation="2"/>
      <feColorMatrix type="matrix" values="0 0 0 0 0 0 0 0 0 0 0 0 0 0 0 0 0 0 0.25 0"/>
      <feBlend mode="normal" in2="BackgroundImageFix" result="effect1_dropShadow_6_87"/>
      <feBlend mode="normal" in="SourceGraphic" in2="effect1_dropShadow_6_87" result="shape"/>
    </filter>
  </defs>
</svg>