<svg xmlns="http://www.w3.org/2000/svg" width="94" height="96" viewBox="0 0 94 96" fill="none">
  <g filter="url(#filter0_d_6_104)">
    <path d="M42.6972 11.3483C43.4069 11.3483 43.9819 10.7732 43.9819 10.0635V1.40217C43.9819 0.69248 43.4069 0.117432 42.6972 0.117432C41.9875 0.117432 41.4124 0.69248 41.4124 1.40217V10.0635C41.4124 10.7732 41.9875 11.3483 42.6972 11.3483Z" fill="#F05833"/>
    <path d="M18.7274 20.5246C19.2293 21.0261 20.0425 21.0261 20.5444 20.5246C21.0461 20.0227 21.0461 19.2093 20.5444 18.7076L14.4198 12.5828C13.9181 12.0814 13.1047 12.0811 12.6028 12.5828C12.1011 13.0847 12.1011 13.8981 12.6028 14.3998L18.7274 20.5246Z" fill="#F05833"/>
    <path d="M10.0837 41.3922H1.42219C0.712499 41.3922 0.137451 41.9673 0.137451 42.6769C0.137451 43.3866 0.712499 43.9617 1.42219 43.9617H10.0835C10.7932 43.9617 11.3683 43.3866 11.3683 42.6769C11.3683 41.9673 10.7932 41.3922 10.0837 41.3922Z" fill="#F05833"/>
    <path d="M18.7274 64.8297L12.6028 70.9543C12.1011 71.4562 12.1011 72.2695 12.6028 72.7712C13.1047 73.2728 13.9179 73.2728 14.4198 72.7712L20.5444 66.6466C21.0461 66.1447 21.0461 65.3314 20.5444 64.8297C20.0427 64.3283 19.2293 64.3283 18.7274 64.8297Z" fill="#F05833"/>
    <path d="M66.6667 64.8297C66.1648 64.3281 65.3515 64.3281 64.8497 64.8297C64.348 65.3316 64.348 66.1449 64.8497 66.6466L70.9743 72.7712C71.4763 73.2728 72.2894 73.2728 72.7913 72.7712C73.293 72.2693 73.293 71.456 72.7913 70.9543L66.6667 64.8297Z" fill="#F05833"/>
    <path d="M83.9719 41.3922H75.3106C74.6009 41.3922 74.0258 41.9673 74.0258 42.6769C74.0258 43.3866 74.6009 43.9617 75.3106 43.9617H83.9719C84.6816 43.9617 85.2567 43.3866 85.2567 42.6769C85.2567 41.9673 84.6815 41.3922 83.9719 41.3922Z" fill="#F05833"/>
    <path d="M70.9743 12.5828L64.8497 18.7076C64.348 19.2095 64.348 20.0228 64.8497 20.5246C65.3517 21.0261 66.1648 21.0261 66.6667 20.5246L72.7913 14.3998C73.293 13.8979 73.293 13.0846 72.7913 12.5828C72.2894 12.0813 71.4761 12.0813 70.9743 12.5828Z" fill="#F05833"/>
    <path d="M68.0771 40.0801C68.0771 25.8843 56.6917 14.3352 42.6972 14.3352C37.795 14.3352 33.037 15.7558 28.9378 18.4433C24.9497 21.0581 21.7704 24.7368 19.7437 29.0814C19.4438 29.7245 19.722 30.489 20.3649 30.7889C21.0084 31.0892 21.7724 30.8107 22.0724 30.1678C25.8305 22.1108 33.9262 16.9047 42.6972 16.9047C55.2749 16.9047 65.5076 27.3011 65.5076 40.0801C65.5076 46.1499 63.2139 51.8884 59.0493 56.2382C56.6489 58.7451 54.6057 61.1406 54.08 64.497H31.6503C30.9879 61.0126 28.6112 58.568 26.4754 56.3732C22.2267 52.0068 19.8868 46.2203 19.8868 40.0801C19.8868 38.564 20.0319 37.0476 20.3178 35.5729C20.4529 34.8764 19.9978 34.2022 19.3011 34.0671C18.6046 33.9329 17.9304 34.3872 17.7952 35.0839C17.478 36.7193 17.3173 38.4002 17.3173 40.0801C17.3173 46.8935 19.9157 53.3163 24.634 58.1651C27.3437 60.9497 29.2619 63.1725 29.2619 66.4304C29.2619 66.4417 29.2621 66.4534 29.2624 66.4647L29.3361 74.004C29.3361 76.45 30.6409 78.5969 32.5908 79.7857V81.1986C32.5908 84.7407 35.4723 87.6223 39.0144 87.6223H46.8942C50.4363 87.6223 53.3178 84.7407 53.3178 81.1986V79.7857C55.2677 78.5969 56.5725 76.45 56.5725 74.004C56.5725 74.004 56.5634 65.606 56.5463 65.5222C56.7901 62.5447 58.5949 60.4283 60.9053 58.0151C65.5299 53.1846 68.0771 46.8151 68.0771 40.0801ZM50.7482 81.1986C50.7482 83.3237 49.0191 85.0528 46.894 85.0528H39.0143C36.8891 85.0528 35.1601 83.3237 35.1601 81.1986V80.7033C35.4682 80.7465 35.7824 80.7703 36.1022 80.7703H49.8061C50.1259 80.7703 50.44 80.7463 50.7482 80.7033V81.1986ZM49.8061 78.2008H36.1022C33.788 78.2008 31.9054 76.3183 31.9054 74.004V73.9184H44.9241C45.6337 73.9184 46.2088 73.3433 46.2088 72.6337C46.2088 71.924 45.6337 71.3489 44.9241 71.3489H31.9054V67.0665H53.9631L54.0029 71.3489H50.9195C50.2098 71.3489 49.6348 71.924 49.6348 72.6337C49.6348 73.3433 50.2098 73.9184 50.9195 73.9184H54.0029V74.004C54.0029 76.3183 52.1201 78.2008 49.8061 78.2008Z" fill="#F05833"/>
    <path d="M51.0497 40.2501C50.6146 40.8104 50.7162 41.6176 51.2765 42.0527C51.8367 42.4879 52.6438 42.3865 53.0791 41.8259L55.6225 38.5505C56.2961 37.6832 56.5914 36.6056 56.4543 35.5159C56.3171 34.4263 55.764 33.4554 54.8966 32.7818C54.0293 32.1083 52.951 31.8113 51.862 31.9502C50.7724 32.0872 49.8015 32.6404 49.1281 33.5078L40.8306 44.1941L36.0685 38.9251C34.5482 37.2437 31.9433 37.1124 30.262 38.632C29.4473 39.3684 28.9682 40.3779 28.9127 41.4747C28.8573 42.5714 29.2323 43.624 29.9686 44.4389L38.0197 53.3464C39.6404 55.2262 42.8428 55.1109 44.3168 53.111L49.4018 46.5623C49.8369 46.002 49.7353 45.1948 49.175 44.7597C48.6147 44.3246 47.8077 44.4258 47.3725 44.9865L42.2875 51.5352C41.7355 52.2852 40.5311 52.3289 39.9261 51.6235L31.8751 42.7159C31.305 42.0852 31.3544 41.1085 31.9852 40.5384C32.6156 39.969 33.5925 40.0177 34.1626 40.6485L39.9525 47.0544C40.4571 47.6396 41.4603 47.606 41.9204 46.9808L51.158 35.0839C51.6525 34.4189 52.6779 34.29 53.3211 34.8117C53.9863 35.3064 54.1151 36.331 53.5933 36.9751L51.0497 40.2501Z" fill="#F05833"/>
  </g>
  <defs>
    <filter id="filter0_d_6_104" x="0.137451" y="0.117432" width="93.1192" height="95.5049" filterUnits="userSpaceOnUse" color-interpolation-filters="sRGB">
      <feFlood flood-opacity="0" result="BackgroundImageFix"/>
      <feColorMatrix in="SourceAlpha" type="matrix" values="0 0 0 0 0 0 0 0 0 0 0 0 0 0 0 0 0 0 127 0" result="hardAlpha"/>
      <feOffset dx="4" dy="4"/>
      <feGaussianBlur stdDeviation="2"/>
      <feColorMatrix type="matrix" values="0 0 0 0 0 0 0 0 0 0 0 0 0 0 0 0 0 0 0.25 0"/>
      <feBlend mode="normal" in2="BackgroundImageFix" result="effect1_dropShadow_6_104"/>
      <feBlend mode="normal" in="SourceGraphic" in2="effect1_dropShadow_6_104" result="shape"/>
    </filter>
  </defs>
</svg>