<svg xmlns="http://www.w3.org/2000/svg" width="85" height="96" viewBox="0 0 85 96" fill="none">
  <g filter="url(#filter0_d_6_97)">
    <path d="M75.334 18.086C75.0602 16.2442 73.8232 14.6583 72.1056 13.947L40.2872 0.770333C38.9742 0.226946 37.5282 0.226946 36.2152 0.770333L4.39685 13.947C2.67926 14.6583 1.44219 16.2442 1.16838 18.086C0.50029 22.5805 -0.619694 34.4717 3.397 47.7851C5.63087 55.189 9.13128 62.0028 13.801 68.037C19.4067 75.2806 26.7626 81.4748 35.6647 86.4469C36.4625 86.8922 37.3567 87.115 38.2512 87.115C39.1455 87.115 40.04 86.8922 40.8377 86.4468C49.7398 81.4746 57.0957 75.2805 62.7014 68.0368C67.371 62.0026 70.8714 55.1889 73.1052 47.7849C77.1221 34.4717 76.002 22.5805 75.334 18.086ZM70.675 47.0516C65.9023 62.8702 55.4473 75.3787 39.5999 84.2303C38.7685 84.6948 37.7349 84.6949 36.903 84.2303C21.0555 75.3789 10.6001 62.8702 5.82758 47.0516C1.95915 34.2296 3.03677 22.7845 3.67962 18.4591C3.82297 17.4947 4.47005 16.6645 5.36824 16.2927L37.1866 3.11603C37.5299 2.97387 37.8906 2.90271 38.2514 2.90271C38.6119 2.90271 38.9728 2.97387 39.3161 3.11603L71.1345 16.2927C72.0327 16.6646 72.6796 17.4947 72.8228 18.4591C73.4658 22.7847 74.5433 34.2297 70.675 47.0516Z" fill="#F05833"/>
    <path d="M65.5317 19.9121L53.0955 14.8367C52.446 14.5721 51.7052 14.8833 51.4406 15.5324C51.1759 16.1815 51.4871 16.9225 52.1363 17.1873L64.5725 22.2627C65.2109 22.5231 65.6703 23.1016 65.7714 23.772C66.285 27.1769 67.1457 36.186 64.0554 46.2803C60.2432 58.7321 51.8872 68.5814 39.2197 75.5543C38.6226 75.8828 37.8804 75.8828 37.2833 75.5543C24.6157 68.5814 16.2597 58.7323 12.4475 46.2803C9.35677 36.1862 10.2175 27.177 10.7311 23.772C10.8322 23.1014 11.2916 22.5231 11.9302 22.2627L37.4858 11.8333C37.9721 11.6347 38.5306 11.6345 39.017 11.8333L46.6922 14.9657C47.3415 15.2303 48.0825 14.9189 48.3471 14.2699C48.612 13.6208 48.3005 12.8799 47.6514 12.615L39.976 9.48265C38.8637 9.02873 37.6388 9.02906 36.5265 9.48265L10.9708 19.9121C9.50841 20.5088 8.45451 21.843 8.22069 23.3935C7.68137 26.9698 6.77691 36.4316 10.0198 47.0235C11.8238 52.916 14.6505 58.3387 18.4215 63.1407C22.9453 68.9014 28.8794 73.8262 36.059 77.7781C36.7352 78.1504 37.4931 78.3364 38.2513 78.3364C39.0094 78.3363 39.7676 78.1504 40.4437 77.7781C47.6235 73.8263 53.5575 68.9014 58.0812 63.1407C61.852 58.3387 64.6787 52.9158 66.4827 47.0235C69.7256 36.4314 68.8211 26.9697 68.2817 23.3935C68.0478 21.8428 66.9941 20.5088 65.5317 19.9121Z" fill="#F05833"/>
    <path d="M35.7213 59.1331H40.7812C42.5925 59.1331 44.0663 57.6664 44.0663 55.8636V50.2525C44.0663 49.8496 44.4009 49.5217 44.8125 49.5217H50.4677C52.2791 49.5217 53.7527 48.0551 53.7527 46.2524V41.232C53.7527 39.4292 52.2791 37.9625 50.4677 37.9625H44.8125C44.4009 37.9625 44.0663 37.6348 44.0663 37.2319V31.6206C44.0663 29.818 42.5927 28.3513 40.7812 28.3513H35.7213C33.91 28.3513 32.4363 29.8178 32.4363 31.6206V37.2319C32.4363 37.6346 32.1014 37.9625 31.6901 37.9625H26.0347C24.2234 37.9625 22.7497 39.4292 22.7497 41.232V46.2524C22.7497 47.8885 23.9777 49.2821 25.6062 49.4941C26.3018 49.5856 26.9382 49.0942 27.0288 48.3992C27.1193 47.704 26.6289 47.0673 25.9339 46.9766C25.5661 46.9287 25.2885 46.6174 25.2885 46.2526V41.2322C25.2885 40.8292 25.6233 40.5014 26.0347 40.5014H31.6901C33.5013 40.5014 34.9751 39.0347 34.9751 37.2321V31.6208C34.9751 31.218 35.3099 30.8902 35.7213 30.8902H40.7812C41.1928 30.8902 41.5274 31.2179 41.5274 31.6208V37.2321C41.5274 39.0347 43.001 40.5014 44.8123 40.5014H50.4675C50.8791 40.5014 51.2139 40.8291 51.2139 41.2322V46.2526C51.2139 46.6554 50.8791 46.9832 50.4675 46.9832H44.8123C43.001 46.9832 41.5274 48.4499 41.5274 50.2527V55.8638C41.5274 56.2667 41.1928 56.5946 40.7812 56.5946H35.7213C35.3099 56.5946 34.9751 56.2669 34.9751 55.8638V50.2527C34.9751 48.45 33.5015 46.9832 31.6901 46.9832C30.9889 46.9832 30.4206 47.5515 30.4206 48.2526C30.4206 48.9538 30.9889 49.5221 31.6901 49.5221C32.1014 49.5221 32.4363 49.8498 32.4363 50.2529V55.864C32.4364 57.6664 33.91 59.1331 35.7213 59.1331Z" fill="#F05833"/>
  </g>
  <defs>
    <filter id="filter0_d_6_97" x="0.5" y="0.362793" width="83.5023" height="94.7522" filterUnits="userSpaceOnUse" color-interpolation-filters="sRGB">
      <feFlood flood-opacity="0" result="BackgroundImageFix"/>
      <feColorMatrix in="SourceAlpha" type="matrix" values="0 0 0 0 0 0 0 0 0 0 0 0 0 0 0 0 0 0 127 0" result="hardAlpha"/>
      <feOffset dx="4" dy="4"/>
      <feGaussianBlur stdDeviation="2"/>
      <feColorMatrix type="matrix" values="0 0 0 0 0 0 0 0 0 0 0 0 0 0 0 0 0 0 0.25 0"/>
      <feBlend mode="normal" in2="BackgroundImageFix" result="effect1_dropShadow_6_97"/>
      <feBlend mode="normal" in="SourceGraphic" in2="effect1_dropShadow_6_97" result="shape"/>
    </filter>
  </defs>
</svg>