<svg xmlns="http://www.w3.org/2000/svg" width="82" height="115" viewBox="0 0 82 115" fill="none">
  <g filter="url(#filter0_d_6_62)">
    <path d="M71.9992 4.09762H52.5331C50.9865 2.14992 48.6005 0.897217 45.9258 0.897217C41.3267 0.897217 37.5779 4.59751 37.494 9.17698H16.5599C12.9622 9.17698 10.0352 12.104 10.0352 15.7019V63.6415H8.83594C7.18825 63.6415 5.84779 64.982 5.84779 66.6299V72.1329L0.90884 103.872C0.684399 105.313 1.80021 106.614 3.25711 106.614H19.9102C21.3687 106.614 22.4827 105.311 22.2585 103.872L17.3195 72.1327V66.6297C17.3195 64.982 15.979 63.6413 14.3314 63.6413H13.1323V15.7017C13.1323 13.8118 14.67 12.2739 16.5599 12.2739H38.0199C38.4544 13.4379 39.1386 14.4804 40.0075 15.3368V22.7017C32.0172 25.2511 26.5369 32.6783 26.5369 41.1687V66.2805C26.5369 67.136 27.2302 67.8291 28.0855 67.8291C28.9407 67.8291 29.634 67.136 29.634 66.2805V41.1687C29.634 33.6913 34.6921 27.1953 41.9344 25.3717C42.6225 25.1982 43.1047 24.5794 43.1047 23.87V17.2819C44.8849 17.9157 46.8803 17.9465 48.7477 17.2817V23.87C48.7477 24.5796 49.23 25.1984 49.918 25.3715C52.7061 26.0735 55.272 27.5168 57.3384 29.5444C57.9467 30.1415 58.9275 30.1364 59.5283 29.5237C60.1273 28.9134 60.118 27.9328 59.5077 27.334C57.3411 25.2077 54.7116 23.6218 51.8447 22.7027V15.3362C52.4063 14.7824 52.8899 14.1504 53.2797 13.4585L60.4629 14.4585C62.1128 14.6873 63.6395 15.3975 64.8784 16.5123L68.9068 20.136C69.5409 20.7065 70.5202 20.6578 71.0938 20.0202C71.6657 19.3844 71.6139 18.4053 70.978 17.8332L66.9498 14.2097C65.2494 12.6797 63.1535 11.7047 60.889 11.3906L54.2824 10.4708C54.4339 9.35228 54.3643 8.2565 54.086 7.19479H71.999C72.8542 7.19479 73.5476 6.50165 73.5476 5.64621C73.5476 4.79077 72.8544 4.09762 71.9992 4.09762ZM14.2407 72.4905L19.0686 103.517H4.09851L8.92638 72.4905C8.93877 72.4117 8.94475 72.332 8.94475 72.2525V66.7385H14.2221V72.2525C14.2223 72.3322 14.2283 72.4117 14.2407 72.4905ZM40.5871 9.33287C40.5871 6.38912 42.982 3.99439 45.9256 3.99439C48.8691 3.99439 51.2641 6.38932 51.2641 9.33287C51.2641 12.2764 48.8691 14.6714 45.9256 14.6714C42.982 14.6714 40.5871 12.2766 40.5871 9.33287Z" fill="#F05833"/>
    <path d="M61.8159 32.9034C61.0261 33.2315 60.6516 34.1377 60.9797 34.9277C61.8012 36.9064 62.2181 39.0065 62.2181 41.1697V90.6466H29.6334V73.5062C29.6334 72.6508 28.9401 71.9577 28.0848 71.9577C27.2296 71.9577 26.5363 72.6508 26.5363 73.5062V104.03C26.5363 105.455 27.6952 106.614 29.1199 106.614H62.7318C64.1563 106.614 65.3153 105.455 65.3153 104.03V41.1697C65.3153 38.5966 64.8189 36.097 63.84 33.7398C63.5121 32.9496 62.6057 32.5751 61.8159 32.9034ZM29.6334 103.517V93.7438H62.2181V103.517H29.6334Z" fill="#F05833"/>
    <path d="M52.4515 59.2155C53.876 59.2155 55.0352 58.0566 55.0352 56.6319V41.2389C55.0352 39.8144 53.8762 38.6553 52.4515 38.6553H39.4C37.9755 38.6553 36.8164 39.8142 36.8164 41.2389V56.6321C36.8164 58.0566 37.9753 59.2157 39.4 59.2157H52.4515V59.2155ZM39.9135 41.7524H51.9378V56.1183H39.9135V41.7524Z" fill="#F05833"/>
  </g>
  <defs>
    <filter id="filter0_d_6_62" x="0.880035" y="0.897217" width="80.6675" height="113.717" filterUnits="userSpaceOnUse" color-interpolation-filters="sRGB">
      <feFlood flood-opacity="0" result="BackgroundImageFix"/>
      <feColorMatrix in="SourceAlpha" type="matrix" values="0 0 0 0 0 0 0 0 0 0 0 0 0 0 0 0 0 0 127 0" result="hardAlpha"/>
      <feOffset dx="4" dy="4"/>
      <feGaussianBlur stdDeviation="2"/>
      <feColorMatrix type="matrix" values="0 0 0 0 0 0 0 0 0 0 0 0 0 0 0 0 0 0 0.25 0"/>
      <feBlend mode="normal" in2="BackgroundImageFix" result="effect1_dropShadow_6_62"/>
      <feBlend mode="normal" in="SourceGraphic" in2="effect1_dropShadow_6_62" result="shape"/>
    </filter>
  </defs>
</svg>