<svg xmlns="http://www.w3.org/2000/svg" width="106" height="80" viewBox="0 0 106 80" fill="none">
  <g filter="url(#filter0_d_6_85)">
    <path d="M86.3549 58.1036V35.6022C86.3549 33.548 84.6836 31.8767 82.6294 31.8767H15.1885C13.1343 31.8767 11.463 33.548 11.463 35.6022V58.1036C11.463 59.914 12.7568 61.4567 14.5395 61.7722L35.7286 65.5206C36.7295 65.6981 37.7747 65.2284 38.3024 64.3538L39.7477 61.9689C41.6767 58.786 45.1871 56.8088 48.9088 56.8088C52.6304 56.8088 56.1408 58.786 58.0698 61.9689L59.5153 64.3538C60.047 65.2328 61.0818 65.7002 62.0899 65.5202L83.2782 61.7722C85.0611 61.4567 86.3549 59.9138 86.3549 58.1036ZM82.7792 58.9503L61.837 62.6548L60.521 60.4835C58.076 56.4491 53.6266 53.9431 48.9092 53.9431C44.1917 53.9431 39.7424 56.4493 37.2973 60.4835L35.9813 62.6548L15.0387 58.9503C14.6274 58.8775 14.3288 58.5214 14.3288 58.1036V35.6022C14.3288 35.1282 14.7145 34.7425 15.1885 34.7425H82.6294C83.1034 34.7425 83.4891 35.1282 83.4891 35.6022V58.1036C83.4891 58.5214 83.1905 58.8775 82.7792 58.9503ZM95.0477 35.5946H92.0864V35.4704C92.0864 32.229 90.4233 29.3701 87.9066 27.6983L69.0948 1.52566C68.6111 0.853547 67.8285 0.452148 67.0015 0.452148H55.3015C53.9846 0.452148 52.9134 1.52337 52.9134 2.84028V7.43696C52.9134 8.75387 53.9846 9.8251 55.3015 9.8251H62.9076L75.128 26.145H22.6899L34.9103 9.8251H42.5164C43.8333 9.8251 44.9045 8.75387 44.9045 7.43696V2.84028C44.9045 1.52337 43.8333 0.452148 42.5164 0.452148H30.8165C29.9894 0.452148 29.2069 0.853546 28.7226 1.52643L22.3027 10.4584C21.8407 11.1011 21.9873 11.9964 22.6298 12.4582C23.2725 12.9201 24.1677 12.7736 24.6295 12.1311L30.964 3.3181H42.0386V6.95953H34.7653C33.9543 6.95953 33.1815 7.34774 32.7012 7.99407L19.1095 26.1452C18.4276 26.1154 15.1094 26.1299 14.5462 26.1597L20.7481 17.5311C21.2099 16.8884 21.0633 15.9932 20.4208 15.5312C19.7783 15.0694 18.8829 15.2158 18.4211 15.8585L9.91113 27.6983C7.39462 29.37 5.73152 32.229 5.73152 35.4704V35.5946H2.77023C1.24278 35.5946 0 36.8374 0 38.3648V47.6075C0 49.1349 1.24278 50.3777 2.77023 50.3777H5.73152V58.2136C5.73152 62.7452 8.9704 66.6073 13.4328 67.3967L34.7296 71.164C38.0504 71.7515 41.4561 70.2086 43.2042 67.3243L44.6495 64.9394C45.5465 63.4595 47.1786 62.5402 48.909 62.5402C50.6393 62.5402 52.2717 63.4595 53.1684 64.9394L54.6137 67.3243C56.3748 70.2321 59.7943 71.7479 63.0882 71.164L72.545 69.4912C73.3243 69.3534 73.8441 68.6099 73.7064 67.8307C73.5686 67.0515 72.8251 66.5316 72.0458 66.6693L62.5891 68.3422C60.4244 68.7249 58.204 67.7192 57.0645 65.8391L55.6192 63.4542C54.2062 61.1228 51.6351 59.6744 48.9088 59.6744C46.1825 59.6744 43.6113 61.1228 42.1983 63.4542L40.753 65.8391C39.6136 67.7192 37.3938 68.7253 35.2284 68.3422L13.932 64.5749C10.8408 64.0281 8.59728 61.3528 8.59728 58.2138V35.4704C8.59728 31.9086 11.4949 29.011 15.0567 29.011H82.7612C86.323 29.011 89.2206 31.9086 89.2206 35.4704V58.2138C89.2206 61.353 86.9771 64.0283 83.8861 64.5751L78.711 65.4906C77.9317 65.6283 77.4116 66.3719 77.5496 67.151C77.6873 67.9303 78.4307 68.4499 79.21 68.3124L84.3854 67.3969C88.8477 66.6075 92.0866 62.7454 92.0866 58.2138V50.3779H95.0479C96.5753 50.3779 97.8181 49.1351 97.8181 47.6077V38.365C97.8179 36.8374 96.5751 35.5946 95.0477 35.5946ZM5.73152 47.5119H2.86576V38.4603H5.73152V47.5119ZM78.7081 26.1452L65.1194 7.99808C64.6361 7.34774 63.8633 6.95953 63.0524 6.95953H55.7791V3.3181H66.8538L83.2713 26.1597C82.8398 26.1315 79.1727 26.1523 78.7081 26.1452ZM94.9522 47.5119H92.0864V38.4603H94.9522V47.5119Z" fill="#F05833"/>
  </g>
  <defs>
    <filter id="filter0_d_6_85" x="0" y="0.452148" width="105.818" height="78.8356" filterUnits="userSpaceOnUse" color-interpolation-filters="sRGB">
      <feFlood flood-opacity="0" result="BackgroundImageFix"/>
      <feColorMatrix in="SourceAlpha" type="matrix" values="0 0 0 0 0 0 0 0 0 0 0 0 0 0 0 0 0 0 127 0" result="hardAlpha"/>
      <feOffset dx="4" dy="4"/>
      <feGaussianBlur stdDeviation="2"/>
      <feColorMatrix type="matrix" values="0 0 0 0 0 0 0 0 0 0 0 0 0 0 0 0 0 0 0.25 0"/>
      <feBlend mode="normal" in2="BackgroundImageFix" result="effect1_dropShadow_6_85"/>
      <feBlend mode="normal" in="SourceGraphic" in2="effect1_dropShadow_6_85" result="shape"/>
    </filter>
  </defs>
</svg>
